<svg width="512" height="512" viewBox="0 0 512 512" fill="none" xmlns="http://www.w3.org/2000/svg">
  <path d="M462 118c-15 10-32 18-50 22-14-16-35-26-58-26-44 0-79 38-79 84 0 7 1 13 2 19-66-4-124-37-163-87-7 12-11 26-11 41 0 29 14 55 35 70-13-1-25-4-36-11v1c0 41 27 75 64 82-7 2-14 3-21 3-5 0-10-1-15-2 10 34 40 58 76 59-28 23-63 37-101 37-7 0-13 0-19-1 36 24 79 39 125 39 150 0 232-132 232-246v-11c16-12 30-27 41-44z" stroke="#0D9488" stroke-width="16" stroke-linecap="round" stroke-linejoin="round" fill="none" />
</svg>
